# xmcd
#
# Track frame offsets:
#	150
#	23135
#	50786
#	75895
#	99594
#	124254
#	149609
#	173863
#	200095
#	226051
#	253683
#	274471
#
# Disc length: 4002 seconds
#
# Revision: 0
# Processed by: cddbd v1.5.2PL0 Copyright (c) Steve Scherf et al.
# Submitted via: audiograbber 1.83.01
#
DISCID=ac0fa00c
DTITLE=Various Artist - XMiX Dance Series 166
DYEAR=2013
DGENRE=Dance
TTITLE0=Sandra Silva Feat. Jack Mix - Let Go Tonight
TTITLE1=Taylor Swift - I Knew You Were Trouble
TTITLE2=Rev-Players Feat. Tius - Make Your Move
TTITLE3=Passion Pit - Carried Away
TTITLE4=Nikki Williams - Glowing
TTITLE5=Daddy's Groove - Stellar
TTITLE6=Christina Aguilera - Let There Be Love
TTITLE7=Audien Feat. Michael S. - Leaving You
TTITLE8=Arty Feat. Chris James - Together We Are
TTITLE9=Sultan and Ned Shephard and Nervo Feat. Omarion - Army
TTITLE10=Justin Timberlake - Suit and Tie
TTITLE11=Calvin Harris Feat. Ellie Goulding - I Need Your Love
EXTD=
EXTT0=
EXTT1=
EXTT2=
EXTT3=
EXTT4=
EXTT5=
EXTT6=
EXTT7=
EXTT8=
EXTT9=
EXTT10=
EXTT11=
PLAYORDER=
